{
    "asset" : {
        "generator" : "Khronos glTF Blender I/O v3.2.40",
        "version" : "2.0"
    },
    "scene" : 0,
    "scenes" : [
        {
            "name" : "Scene",
            "nodes" : [
                0
            ]
        }
    ],
    "nodes" : [
        {
            "mesh" : 0,
            "name" : "Icosphere"
        }
    ],
    "meshes" : [
        {
            "name" : "Icosphere",
            "primitives" : [
                {
                    "attributes" : {
                        "POSITION" : 0,
                        "NORMAL" : 1,
                        "TEXCOORD_0" : 2
                    },
                    "indices" : 3
                }
            ]
        }
    ],
    "accessors" : [
        {
            "bufferView" : 0,
            "componentType" : 5126,
            "count" : 11760,
            "max" : [
                0.9453632831573486,
                0.9753502607345581,
                0.9727305173873901
            ],
            "min" : [
                -0.9453632831573486,
                -0.9753502607345581,
                -0.9727305173873901
            ],
            "type" : "VEC3"
        },
        {
            "bufferView" : 1,
            "componentType" : 5126,
            "count" : 11760,
            "type" : "VEC3"
        },
        {
            "bufferView" : 2,
            "componentType" : 5126,
            "count" : 11760,
            "type" : "VEC2"
        },
        {
            "bufferView" : 3,
            "componentType" : 5123,
            "count" : 17520,
            "type" : "SCALAR"
        }
    ],
    "bufferViews" : [
        {
            "buffer" : 0,
            "byteLength" : 141120,
            "byteOffset" : 0
        },
        {
            "buffer" : 0,
            "byteLength" : 141120,
            "byteOffset" : 141120
        },
        {
            "buffer" : 0,
            "byteLength" : 94080,
            "byteOffset" : 282240
        },
        {
            "buffer" : 0,
            "byteLength" : 35040,
            "byteOffset" : 376320
        }
    ],
    "buffers" : [
        {
            "byteLength" : 411360,
            "uri" : "ballz.bin"
        }
    ]
}
