{
    "asset" : {
        "generator" : "Khronos glTF Blender I/O v3.2.40",
        "version" : "2.0"
    },
    "scene" : 0,
    "scenes" : [
        {
            "name" : "Scene",
            "nodes" : [
                0
            ]
        }
    ],
    "nodes" : [
        {
            "mesh" : 0,
            "name" : "Icosphere",
            "rotation" : [
                0.16393300890922546,
                -0.025524675846099854,
                -0.15171600878238678,
                0.9744006991386414
            ],
            "translation" : [
                0.5299999713897705,
                0.4599999785423279,
                -0.32999998331069946
            ]
        }
    ],
    "meshes" : [
        {
            "name" : "Icosphere",
            "primitives" : [
                {
                    "attributes" : {
                        "POSITION" : 0,
                        "NORMAL" : 1,
                        "TEXCOORD_0" : 2
                    },
                    "indices" : 3
                }
            ]
        }
    ],
    "accessors" : [
        {
            "bufferView" : 0,
            "componentType" : 5126,
            "count" : 1540,
            "max" : [
                2,
                2,
                1.9999998807907104
            ],
            "min" : [
                -1.9999998807907104,
                -2,
                -1.9999998807907104
            ],
            "type" : "VEC3"
        },
        {
            "bufferView" : 1,
            "componentType" : 5126,
            "count" : 1540,
            "type" : "VEC3"
        },
        {
            "bufferView" : 2,
            "componentType" : 5126,
            "count" : 1540,
            "type" : "VEC2"
        },
        {
            "bufferView" : 3,
            "componentType" : 5123,
            "count" : 2040,
            "type" : "SCALAR"
        }
    ],
    "bufferViews" : [
        {
            "buffer" : 0,
            "byteLength" : 18480,
            "byteOffset" : 0
        },
        {
            "buffer" : 0,
            "byteLength" : 18480,
            "byteOffset" : 18480
        },
        {
            "buffer" : 0,
            "byteLength" : 12320,
            "byteOffset" : 36960
        },
        {
            "buffer" : 0,
            "byteLength" : 4080,
            "byteOffset" : 49280
        }
    ],
    "buffers" : [
        {
            "byteLength" : 53360,
            "uri" : "basic.bin"
        }
    ]
}
