{
    "asset" : {
        "generator" : "Khronos glTF Blender I/O v3.2.40",
        "version" : "2.0"
    },
    "scene" : 0,
    "scenes" : [
        {
            "name" : "Scene",
            "nodes" : [
                0
            ]
        }
    ],
    "nodes" : [
        {
            "mesh" : 0,
            "name" : "Torus"
        }
    ],
    "meshes" : [
        {
            "name" : "Torus",
            "primitives" : [
                {
                    "attributes" : {
                        "POSITION" : 0
                    },
                    "indices" : 1
                }
            ]
        }
    ],
    "accessors" : [
        {
            "bufferView" : 0,
            "componentType" : 5126,
            "count" : 1218,
            "max" : [
                1.5299999713897705,
                0.5285179615020752,
                1.5277560949325562
            ],
            "min" : [
                -1.5299999713897705,
                -0.5285179615020752,
                -1.5277560949325562
            ],
            "type" : "VEC3"
        },
        {
            "bufferView" : 1,
            "componentType" : 5123,
            "count" : 7308,
            "type" : "SCALAR"
        }
    ],
    "bufferViews" : [
        {
            "buffer" : 0,
            "byteLength" : 14616,
            "byteOffset" : 0
        },
        {
            "buffer" : 0,
            "byteLength" : 14616,
            "byteOffset" : 14616
        }
    ],
    "buffers" : [
        {
            "byteLength" : 29232,
            "uri" : "donut.bin"
        }
    ]
}
